<mxfile host="app.diagrams.net" modified="2024-05-29T03:37:43.489Z" agent="Mozilla/5.0 (Windows NT 10.0; Win64; x64) AppleWebKit/537.36 (KHTML, like Gecko) Chrome/125.0.0.0 Safari/537.36" version="24.4.9" etag="-ed9WY0Z2byjib3k58ha" type="device">
  <diagram id="gDK4y74Qyyx_sagniXfo" name="Page-1">
    <mxGraphModel dx="1690" dy="607" grid="0" gridSize="10" guides="1" tooltips="1" connect="1" arrows="1" fold="1" page="0" pageScale="1" pageWidth="827" pageHeight="1169" math="0" shadow="0">
      <root>
        <mxCell id="0" />
        <mxCell id="1" parent="0" />
        <mxCell id="HujFa8clC4RSW-_aupId-1" value="supplier" style="shape=umlActor;verticalLabelPosition=bottom;verticalAlign=top;html=1;" vertex="1" parent="1">
          <mxGeometry x="-143" y="317" width="70" height="113" as="geometry" />
        </mxCell>
        <mxCell id="HujFa8clC4RSW-_aupId-2" value="&lt;div&gt;customer&lt;/div&gt;" style="shape=umlActor;verticalLabelPosition=bottom;verticalAlign=top;html=1;" vertex="1" parent="1">
          <mxGeometry x="436" y="317" width="70" height="123" as="geometry" />
        </mxCell>
        <mxCell id="HujFa8clC4RSW-_aupId-3" value="make bill" style="ellipse;whiteSpace=wrap;html=1;" vertex="1" parent="1">
          <mxGeometry x="120" y="146" width="120" height="50" as="geometry" />
        </mxCell>
        <mxCell id="HujFa8clC4RSW-_aupId-4" value="add amount" style="ellipse;whiteSpace=wrap;html=1;" vertex="1" parent="1">
          <mxGeometry x="120" y="313" width="120" height="50" as="geometry" />
        </mxCell>
        <mxCell id="HujFa8clC4RSW-_aupId-5" value="update bill" style="ellipse;whiteSpace=wrap;html=1;" vertex="1" parent="1">
          <mxGeometry x="120" y="226" width="120" height="50" as="geometry" />
        </mxCell>
        <mxCell id="HujFa8clC4RSW-_aupId-6" value="pay bill" style="ellipse;whiteSpace=wrap;html=1;" vertex="1" parent="1">
          <mxGeometry x="120" y="394" width="120" height="50" as="geometry" />
        </mxCell>
        <mxCell id="HujFa8clC4RSW-_aupId-7" value="get cashback" style="ellipse;whiteSpace=wrap;html=1;" vertex="1" parent="1">
          <mxGeometry x="120" y="476" width="120" height="50" as="geometry" />
        </mxCell>
        <mxCell id="HujFa8clC4RSW-_aupId-8" value="scan Qr" style="ellipse;whiteSpace=wrap;html=1;" vertex="1" parent="1">
          <mxGeometry x="120" y="553" width="120" height="50" as="geometry" />
        </mxCell>
        <mxCell id="HujFa8clC4RSW-_aupId-9" value="" style="endArrow=none;html=1;rounded=0;entryX=0;entryY=0.5;entryDx=0;entryDy=0;" edge="1" parent="1" source="HujFa8clC4RSW-_aupId-1" target="HujFa8clC4RSW-_aupId-3">
          <mxGeometry width="50" height="50" relative="1" as="geometry">
            <mxPoint x="164" y="391" as="sourcePoint" />
            <mxPoint x="214" y="341" as="targetPoint" />
          </mxGeometry>
        </mxCell>
        <mxCell id="HujFa8clC4RSW-_aupId-10" value="" style="endArrow=none;html=1;rounded=0;entryX=0;entryY=0.5;entryDx=0;entryDy=0;" edge="1" parent="1" source="HujFa8clC4RSW-_aupId-1" target="HujFa8clC4RSW-_aupId-5">
          <mxGeometry width="50" height="50" relative="1" as="geometry">
            <mxPoint x="-63" y="352" as="sourcePoint" />
            <mxPoint x="130" y="181" as="targetPoint" />
          </mxGeometry>
        </mxCell>
        <mxCell id="HujFa8clC4RSW-_aupId-11" value="" style="endArrow=none;html=1;rounded=0;entryX=0;entryY=0.5;entryDx=0;entryDy=0;" edge="1" parent="1" source="HujFa8clC4RSW-_aupId-1" target="HujFa8clC4RSW-_aupId-4">
          <mxGeometry width="50" height="50" relative="1" as="geometry">
            <mxPoint x="-63" y="365" as="sourcePoint" />
            <mxPoint x="130" y="261" as="targetPoint" />
          </mxGeometry>
        </mxCell>
        <mxCell id="HujFa8clC4RSW-_aupId-12" value="" style="endArrow=none;html=1;rounded=0;entryX=1;entryY=0.5;entryDx=0;entryDy=0;" edge="1" parent="1" source="HujFa8clC4RSW-_aupId-2" target="HujFa8clC4RSW-_aupId-6">
          <mxGeometry width="50" height="50" relative="1" as="geometry">
            <mxPoint x="-63" y="365" as="sourcePoint" />
            <mxPoint x="130" y="261" as="targetPoint" />
          </mxGeometry>
        </mxCell>
        <mxCell id="HujFa8clC4RSW-_aupId-13" value="" style="endArrow=none;html=1;rounded=0;entryX=1;entryY=0.5;entryDx=0;entryDy=0;" edge="1" parent="1" source="HujFa8clC4RSW-_aupId-2" target="HujFa8clC4RSW-_aupId-7">
          <mxGeometry width="50" height="50" relative="1" as="geometry">
            <mxPoint x="441" y="362" as="sourcePoint" />
            <mxPoint x="250" y="429" as="targetPoint" />
          </mxGeometry>
        </mxCell>
        <mxCell id="HujFa8clC4RSW-_aupId-14" value="" style="endArrow=none;html=1;rounded=0;entryX=1;entryY=0.5;entryDx=0;entryDy=0;" edge="1" parent="1" source="HujFa8clC4RSW-_aupId-2" target="HujFa8clC4RSW-_aupId-8">
          <mxGeometry width="50" height="50" relative="1" as="geometry">
            <mxPoint x="441" y="361" as="sourcePoint" />
            <mxPoint x="250" y="511" as="targetPoint" />
          </mxGeometry>
        </mxCell>
        <mxCell id="HujFa8clC4RSW-_aupId-15" value="chack bill" style="ellipse;whiteSpace=wrap;html=1;" vertex="1" parent="1">
          <mxGeometry x="120" y="66" width="120" height="50" as="geometry" />
        </mxCell>
        <mxCell id="HujFa8clC4RSW-_aupId-16" value="chack payment" style="ellipse;whiteSpace=wrap;html=1;" vertex="1" parent="1">
          <mxGeometry x="121" y="637" width="120" height="48" as="geometry" />
        </mxCell>
        <mxCell id="HujFa8clC4RSW-_aupId-17" value="" style="endArrow=none;html=1;rounded=0;entryX=1;entryY=0.5;entryDx=0;entryDy=0;" edge="1" parent="1" source="HujFa8clC4RSW-_aupId-2" target="HujFa8clC4RSW-_aupId-16">
          <mxGeometry width="50" height="50" relative="1" as="geometry">
            <mxPoint x="451" y="371" as="sourcePoint" />
            <mxPoint x="250" y="588" as="targetPoint" />
          </mxGeometry>
        </mxCell>
        <mxCell id="HujFa8clC4RSW-_aupId-18" value="" style="endArrow=none;html=1;rounded=0;exitX=1;exitY=0.5;exitDx=0;exitDy=0;" edge="1" parent="1" source="HujFa8clC4RSW-_aupId-15" target="HujFa8clC4RSW-_aupId-2">
          <mxGeometry width="50" height="50" relative="1" as="geometry">
            <mxPoint x="165" y="392" as="sourcePoint" />
            <mxPoint x="215" y="342" as="targetPoint" />
          </mxGeometry>
        </mxCell>
        <mxCell id="HujFa8clC4RSW-_aupId-19" value="" style="endArrow=none;html=1;rounded=0;entryX=0;entryY=0.5;entryDx=0;entryDy=0;" edge="1" parent="1" source="HujFa8clC4RSW-_aupId-1" target="HujFa8clC4RSW-_aupId-16">
          <mxGeometry width="50" height="50" relative="1" as="geometry">
            <mxPoint x="-72" y="383" as="sourcePoint" />
            <mxPoint x="130" y="348" as="targetPoint" />
            <Array as="points" />
          </mxGeometry>
        </mxCell>
        <mxCell id="HujFa8clC4RSW-_aupId-20" value="login and logout from&lt;div&gt;thir account&lt;/div&gt;" style="ellipse;whiteSpace=wrap;html=1;" vertex="1" parent="1">
          <mxGeometry x="117" y="705" width="128" height="58" as="geometry" />
        </mxCell>
        <mxCell id="HujFa8clC4RSW-_aupId-21" value="" style="endArrow=none;html=1;rounded=0;entryX=1;entryY=0.5;entryDx=0;entryDy=0;exitX=0.131;exitY=0.885;exitDx=0;exitDy=0;exitPerimeter=0;" edge="1" parent="1" source="HujFa8clC4RSW-_aupId-2" target="HujFa8clC4RSW-_aupId-20">
          <mxGeometry width="50" height="50" relative="1" as="geometry">
            <mxPoint x="446" y="431" as="sourcePoint" />
            <mxPoint x="251" y="671" as="targetPoint" />
          </mxGeometry>
        </mxCell>
        <mxCell id="HujFa8clC4RSW-_aupId-22" value="" style="endArrow=none;html=1;rounded=0;entryX=0;entryY=0.5;entryDx=0;entryDy=0;" edge="1" parent="1" source="HujFa8clC4RSW-_aupId-1" target="HujFa8clC4RSW-_aupId-20">
          <mxGeometry width="50" height="50" relative="1" as="geometry">
            <mxPoint x="-63" y="427" as="sourcePoint" />
            <mxPoint x="131" y="671" as="targetPoint" />
            <Array as="points" />
          </mxGeometry>
        </mxCell>
      </root>
    </mxGraphModel>
  </diagram>
</mxfile>
